 <svg
        class="programador"
        width="257"
        height="215"
        viewBox="0 0 257 215"
        fill="none"
        xmlns="http://www.w3.org/2000/svg"
      >
        <rect width="257" height="215" fill="#ffffff" />
        <g id="imagenIncioAni 1" clip-path="url(#clip0_0_1)">
          <g id="Group 2">
            <path
              id="Path4"
              d="M213.807 202.757L213.362 208.691L204.314 205.724L208.022 201.275L213.807 202.757Z"
              fill="#FEB8B8"
            />
            <path
              id="Path5"
              d="M246.735 200.829L246.289 206.614L241.246 207.355L238.28 204.537L241.691 199.049L246.735 200.829Z"
              fill="#FEB8B8"
            />
            <path
              id="Path6"
              d="M250.443 126.964C250.443 126.964 254.448 131.71 249.405 138.978C244.361 146.246 238.28 153.366 238.28 153.366L227.006 174.724C227.006 174.724 221.222 195.638 219.887 196.231C218.552 196.824 217.81 194.451 218.552 196.973C219.293 199.494 218.848 199.346 218.255 199.495C217.662 199.644 216.031 199.347 216.624 200.385C217.217 201.423 217.662 201.423 216.475 201.423C215.289 201.423 214.844 200.682 214.844 201.72C214.844 202.758 213.806 205.131 213.806 205.131C213.806 205.131 206.538 203.055 206.241 202.165C205.944 201.275 208.169 200.83 207.724 199.94C207.279 199.05 207.131 199.05 207.131 197.715C207.131 196.381 208.021 196.084 208.021 196.084C208.021 196.084 208.763 195.787 208.466 195.194C208.169 194.6 206.983 194.897 208.466 194.155C209.949 193.414 216.031 170.72 216.031 170.72C216.031 170.72 216.031 159.446 217.959 155.738C219.887 152.031 218.404 125.629 223.004 125.332C227.603 125.035 250.443 126.964 250.443 126.964Z"
              fill="#2F2E41"
            />
            <path
              id="Path 7"
              d="M248.96 135.418L248.07 158.408C248.07 158.408 252.519 180.657 251.036 187.48C249.553 194.302 250.591 193.413 249.701 194.599C248.811 195.786 248.07 195.192 248.811 196.231C249.553 197.269 249.996 197.566 248.811 198.753C247.626 199.94 247.031 202.758 247.031 202.758L239.467 202.016C239.467 202.016 241.395 198.605 240.652 197.863C239.909 197.122 237.982 198.308 239.467 196.678C240.952 195.048 241.84 195.788 240.95 195.047C240.06 194.305 238.725 194.602 239.912 193.415C241.098 192.228 242.434 192.23 241.247 191.784C240.059 191.337 238.724 191.784 239.319 190.893C239.913 190.003 240.653 188.965 240.653 188.965L238.874 175.468C238.874 175.468 236.797 171.018 237.39 169.09C237.984 167.162 234.868 151.291 234.868 151.291L248.96 135.418Z"
              fill="#2F2E41"
            />
            <path
              id="Path 8"
              d="M245.697 203.795C245.697 203.795 247.181 202.312 247.625 203.202C248.07 204.092 251.333 212.102 249.405 212.695C247.478 213.288 244.659 213.88 243.176 213.436C241.693 212.993 238.578 210.914 234.87 210.914C231.162 210.914 228.047 209.283 228.047 208.689C228.047 208.096 227.454 204.536 230.272 204.536C233.09 204.536 238.281 201.273 238.281 201.273C238.281 201.273 239.466 198.9 240.061 199.049C240.656 199.197 240.209 203.943 240.209 203.943C240.209 203.943 243.62 207.207 245.697 203.795Z"
              fill="#2F2E41"
            />
            <path
              id="Path 9"
              d="M212.769 205.724C212.769 205.724 214.104 202.461 215.439 203.201C216.774 203.942 215.884 213.138 215.884 213.138C215.884 213.138 214.698 215.066 211.285 214.622C207.873 214.177 198.826 213.138 196.75 213.583C194.673 214.028 189.037 211.507 190.52 208.095C190.52 208.095 191.262 206.167 194.821 206.315C198.381 206.464 204.908 202.162 204.908 202.162C204.908 202.162 205.946 199.196 206.243 199.492C206.539 199.789 206.836 204.98 206.836 204.98C206.836 204.98 210.692 207.503 212.769 205.724Z"
              fill="#2F2E41"
            />
            <path
              id="Ellipse 2"
              d="M232.199 68.9693C236.95 68.9693 240.802 65.1176 240.802 60.3664C240.802 55.6152 236.95 51.7635 232.199 51.7635C227.448 51.7635 223.596 55.6152 223.596 60.3664C223.596 65.1176 227.448 68.9693 232.199 68.9693Z"
              fill="#FEB8B8"
            />
            <path
              id="Path 10"
              d="M238.874 60.9595C238.874 60.9595 243.472 70.1556 245.103 71.0457C246.735 71.9357 233.979 77.4238 233.979 77.4238C233.979 77.4238 231.903 68.3761 229.381 66.4479C226.859 64.5198 238.874 60.9595 238.874 60.9595Z"
              fill="#FEB8B8"
            />
            <path
              id="Path 11"
              d="M225.673 136.16L225.08 141.796C225.08 141.796 218.702 139.571 220.778 135.418L225.673 136.16Z"
              fill="#FEB8B8"
            />
            <path
              id="Path 12"
              d="M223.152 127.705C227.602 132.45 251.185 128.446 251.185 128.446L250.889 125.034L253.856 121.922L252.966 107.385C252.966 107.385 255.634 100.563 256.079 90.1802C256.106 89.542 256.067 88.9027 255.964 88.2724C254.435 78.9715 239.29 72.9811 238.874 73.1218C238.665 73.1908 236.435 74.3525 234.109 75.5747C231.438 76.9777 228.641 78.4616 228.641 78.4616C225.08 79.7987 225.674 101.158 224.487 103.085C223.299 105.013 224.487 111.685 224.487 111.685L223.153 118.063C223.153 118.063 218.701 122.96 223.152 127.705Z"
              fill="#D3313A"
            />
            <path
              id="Path 13"
              opacity="0.1"
              d="M237.527 80.6183C237.527 80.6183 241.681 93.0774 240.791 101.532C239.9 109.987 230.26 134.163 230.26 134.163L226.998 135.943V140.096L224.703 133.879L231.014 120.682C231.014 120.682 223.139 75.1305 237.527 80.6183Z"
              fill="black"
            />
            <path
              id="Path 14"
              opacity="0.1"
              d="M233.632 76.8799C237.936 74.5072 244.462 80.7392 251.285 87.4115C253.735 89.807 255.152 89.5661 255.965 88.2721C254.435 78.9712 239.291 72.9808 238.875 73.1215C238.665 73.1905 236.436 74.3522 234.109 75.5744L233.632 76.8799Z"
              fill="black"
            />
            <path
              id="Path 15"
              d="M233.634 75.7334L235.414 70.8388C235.414 70.8388 247.577 65.0541 255.586 70.8388L256.921 79.1448C256.921 79.1448 258.106 92.9389 251.285 86.2644C244.463 79.5899 237.935 73.3601 233.634 75.7334Z"
              fill="#D3313A"
            />
            <path
              id="Path 16"
              d="M237.094 78.6102C237.094 78.6102 241.247 91.0693 240.357 99.5239C239.467 107.979 229.826 132.155 229.826 132.155L226.563 133.936V138.09L219.74 136.161L221.224 131.267C221.224 131.267 218.85 128.3 220.482 127.41C222.114 126.52 221.817 121.626 221.817 121.626C221.817 121.626 222.707 73.1221 237.094 78.6102Z"
              fill="#D3313A"
            />
            <path
              id="Path 17"
              d="M239.869 63.9677C239.728 63.3028 239.747 62.5875 239.429 61.9873C238.951 61.0875 237.852 60.711 236.837 60.6223C235.541 60.5095 234.235 60.7338 232.937 60.645C231.639 60.5563 230.253 60.0616 229.607 58.9327C229.349 58.4823 229.222 57.952 228.88 57.5616C228.169 56.749 226.872 56.8748 225.85 57.223C224.828 57.5713 223.761 58.08 222.716 57.8077C221.837 55.349 222.92 52.5129 224.791 50.6923C226.663 48.8718 229.187 47.892 231.694 47.1618C235 46.1985 238.721 45.6293 241.761 47.2475C246.17 49.5938 247.725 55.8042 247.319 60.4329C247.165 62.1827 246.914 64.164 245.499 65.3452C243.426 67.0767 240.495 66.9281 239.869 63.9677Z"
              fill="#2F2E41"
            />
            <path
              id="Rectangle 1"
              d="M185.891 0.851471H0.0795898V119.854H185.891V0.851471Z"
              fill="#E6E6E6"
            />
            <path
              id="Rectangle 2"
              d="M181.186 15.7773H6.00044V112.813H181.186V15.7773Z"
              fill="white"
            />
            <path
              id="Rectangle3"
              d="M185.812 0.746063H0V8.63999H185.812V0.746063Z"
              fill="#D3313A"
            />
            <path
              id="Ellipse 3"
              d="M5.86643 6.24511C6.67453 6.24511 7.32962 5.59001 7.32962 4.78192C7.32962 3.97382 6.67453 3.31873 5.86643 3.31873C5.05834 3.31873 4.40324 3.97382 4.40324 4.78192C4.40324 5.59001 5.05834 6.24511 5.86643 6.24511Z"
              fill="white"
            />
            <path
              id="Ellipse 4"
              d="M11.4199 6.24511C12.228 6.24511 12.8831 5.59001 12.8831 4.78192C12.8831 3.97382 12.228 3.31873 11.4199 3.31873C10.6118 3.31873 9.95668 3.97382 9.95668 4.78192C9.95668 5.59001 10.6118 6.24511 11.4199 6.24511Z"
              fill="white"
            />
            <path
              id="Ellipse 5"
              d="M16.9733 6.24511C17.7814 6.24511 18.4365 5.59001 18.4365 4.78192C18.4365 3.97382 17.7814 3.31873 16.9733 3.31873C16.1652 3.31873 15.5101 3.97382 15.5101 4.78192C15.5101 5.59001 16.1652 6.24511 16.9733 6.24511Z"
              fill="white"
            />
            <path
              id="Path37"
              d="M36.6496 29.3781L25.0617 40.8213L36.6496 52.2643L39.257 49.657L30.4945 40.8933L39.3302 32.0577L36.6496 29.3781Z"
              fill="#D3313A"
            />
            <path
              id="Path 38"
              d="M46.1444 29.3781L57.732 40.8213L46.1444 52.2643L43.5371 49.657L52.3001 40.8936L43.4639 32.0577L46.1444 29.3781Z"
              fill="#D3313A"
            />
            <path
              id="Path 65"
              d="M83.6264 27.3876C82.6786 27.3876 81.9104 27.9328 81.9104 28.605C81.9104 29.2772 82.6786 29.8223 83.6264 29.8223H164.524C165.472 29.8223 166.24 29.2772 166.24 28.605C166.24 27.9328 165.472 27.3876 164.524 27.3876H83.6264Z"
              fill="#E6E6E6"
            />
            <path
              id="Path 78"
              d="M163.719 98.9454H27.6298C26.2386 98.9454 25.1112 98.1422 25.1097 97.1525V73.133C25.1112 72.1433 26.2386 71.3401 27.6298 71.3401H163.719C165.111 71.3401 166.238 72.1433 166.24 73.133V97.1522C166.238 98.1419 165.111 98.9441 163.719 98.9454ZM27.6298 72.0567C26.7951 72.0567 26.1186 72.5387 26.1177 73.1324V97.1515C26.1177 97.7453 26.7951 98.2267 27.6298 98.2273H163.719C164.554 98.2273 165.231 97.7453 165.232 97.1515V73.133C165.232 72.5393 164.554 72.0579 163.719 72.0573L27.6298 72.0567Z"
              fill="#E6E6E6"
            />
            <path
              id="Ellipse 13"
              d="M41.6439 91.221C45.0066 91.221 47.7325 88.4951 47.7325 85.1325C47.7325 81.7698 45.0066 79.0439 41.6439 79.0439C38.2813 79.0439 35.5554 81.7698 35.5554 85.1325C35.5554 88.4951 38.2813 91.221 41.6439 91.221Z"
              fill="#E6E6E6"
            />
            <path
              id="Path79"
              d="M58.8163 80.263C58.4934 80.2626 58.1836 80.3905 57.955 80.6185C57.7264 80.8465 57.5978 81.1559 57.5974 81.4788C57.5969 81.8017 57.7248 82.1115 57.9528 82.3401C58.1808 82.5687 58.4903 82.6973 58.8131 82.6977H116.208C116.53 82.6977 116.84 82.5695 117.068 82.3412C117.297 82.1129 117.425 81.8032 117.425 81.4804C117.425 81.1575 117.297 80.8479 117.068 80.6196C116.84 80.3913 116.53 80.263 116.208 80.263H58.8163Z"
              fill="#D3313A"
            />
            <path
              id="Path80"
              d="M58.8163 87.5674C58.6564 87.5672 58.4981 87.5985 58.3503 87.6595C58.2025 87.7205 58.0682 87.81 57.955 87.9229C57.7264 88.1509 57.5978 88.4604 57.5974 88.7832C57.5969 89.1061 57.7248 89.4159 57.9528 89.6445C58.1808 89.8731 58.4903 90.0017 58.8131 90.0021H83.5115C83.8344 90.0026 84.1442 89.8747 84.3728 89.6467C84.6014 89.4187 84.73 89.1092 84.7304 88.7864C84.7308 88.4635 84.603 88.1537 84.375 87.9251C84.147 87.6965 83.8375 87.5679 83.5147 87.5674H58.8163Z"
              fill="#D3313A"
            />
            <path
              id="Path 82"
              d="M88.992 48.4555C88.1779 48.4555 87.5179 49.0006 87.5179 49.6728C87.5179 50.345 88.1779 50.8902 88.992 50.8902H158.49C159.304 50.8902 159.964 50.345 159.964 49.6728C159.964 49.0006 159.304 48.4555 158.49 48.4555H88.992Z"
              fill="#E6E6E6"
            />
          </g>
          <path
            id="hola"
            d="M83.7027 33.8166L84.3319 34.244C83.9639 34.7465 83.774 35.2885 83.7621 35.8702V36.6774H82.67V35.9889C82.67 35.5853 82.765 35.1857 82.9549 34.79C83.1488 34.3943 83.3981 34.0699 83.7027 33.8166ZM85.5723 33.8166L86.2015 34.244C85.8335 34.7465 85.6436 35.2885 85.6317 35.8702V36.6774H84.5396V35.9889C84.5396 35.5853 84.6346 35.1857 84.8245 34.79C85.0184 34.3943 85.2677 34.0699 85.5723 33.8166ZM93.9944 43.0458H92.8489V39.0515H88.4924V43.0458H87.3529V34.4042H88.4924V38.1196H92.8489V34.4042H93.9944V43.0458ZM95.5553 39.7755C95.5553 39.1464 95.678 38.5806 95.9233 38.0781C96.1726 37.5756 96.5168 37.1878 96.956 36.9148C97.3992 36.6418 97.9037 36.5053 98.4695 36.5053C99.3439 36.5053 100.05 36.808 100.588 37.4133C101.13 38.0187 101.401 38.8239 101.401 39.829V39.9061C101.401 40.5313 101.281 41.0932 101.039 41.5917C100.802 42.0863 100.46 42.4721 100.013 42.7491C99.5695 43.0261 99.0591 43.1645 98.4814 43.1645C97.6109 43.1645 96.9046 42.8618 96.3625 42.2565C95.8244 41.6511 95.5553 40.8498 95.5553 39.8527V39.7755ZM96.6593 39.9061C96.6593 40.6183 96.8235 41.1901 97.1519 41.6214C97.4842 42.0527 97.9274 42.2683 98.4814 42.2683C99.0393 42.2683 99.4824 42.0507 99.8108 41.6155C100.139 41.1763 100.303 40.563 100.303 39.7755C100.303 39.0712 100.135 38.5015 99.799 38.0662C99.4666 37.627 99.0234 37.4074 98.4695 37.4074C97.9274 37.4074 97.4902 37.6231 97.1578 38.0543C96.8254 38.4856 96.6593 39.1029 96.6593 39.9061ZM103.971 43.0458H102.873V33.9294H103.971V43.0458ZM109.699 43.0458C109.636 42.9192 109.584 42.6937 109.545 42.3692C109.034 42.8994 108.425 43.1645 107.717 43.1645C107.083 43.1645 106.563 42.9865 106.156 42.6304C105.752 42.2703 105.55 41.8153 105.55 41.2653C105.55 40.5966 105.803 40.0782 106.31 39.7103C106.82 39.3383 107.536 39.1524 108.458 39.1524H109.527V38.6479C109.527 38.2641 109.412 37.9594 109.183 37.7338C108.953 37.5044 108.615 37.3896 108.168 37.3896C107.776 37.3896 107.447 37.4885 107.182 37.6864C106.917 37.8842 106.785 38.1236 106.785 38.4045H105.681C105.681 38.084 105.794 37.7754 106.019 37.4786C106.249 37.1779 106.557 36.9405 106.945 36.7664C107.337 36.5923 107.766 36.5053 108.233 36.5053C108.973 36.5053 109.552 36.6912 109.972 37.0632C110.391 37.4312 110.609 37.9396 110.625 38.5885V41.5442C110.625 42.1338 110.7 42.6027 110.85 42.9509V43.0458H109.699ZM107.877 42.209C108.221 42.209 108.547 42.1199 108.856 41.9419C109.165 41.7638 109.388 41.5324 109.527 41.2475V39.9299H108.666C107.321 39.9299 106.648 40.3236 106.648 41.111C106.648 41.4552 106.763 41.7243 106.992 41.9182C107.222 42.112 107.517 42.209 107.877 42.209ZM117.005 34.4042L119.83 41.4552L122.655 34.4042H124.133V43.0458H122.994V39.6806L123.101 36.0483L120.263 43.0458H119.391L116.56 36.0661L116.673 39.6806V43.0458H115.533V34.4042H117.005ZM129.938 42.4108C129.511 42.9133 128.883 43.1645 128.056 43.1645C127.372 43.1645 126.85 42.9667 126.49 42.571C126.133 42.1714 125.953 41.5818 125.949 40.8023V36.624H127.047V40.7727C127.047 41.746 127.443 42.2327 128.234 42.2327C129.073 42.2327 129.631 41.9201 129.908 41.295V36.624H131.006V43.0458H129.962L129.938 42.4108ZM133.719 36.624L133.754 37.4312C134.245 36.8139 134.886 36.5053 135.677 36.5053C137.034 36.5053 137.719 37.2709 137.731 38.8022V43.0458H136.633V38.7962C136.629 38.3333 136.522 37.991 136.312 37.7695C136.106 37.5479 135.784 37.4371 135.345 37.4371C134.989 37.4371 134.676 37.532 134.407 37.722C134.138 37.9119 133.928 38.1612 133.778 38.4698V43.0458H132.68V36.624H133.719ZM139.12 39.7815C139.12 38.7962 139.353 38.0049 139.82 37.4074C140.287 36.806 140.898 36.5053 141.654 36.5053C142.406 36.5053 143.001 36.7625 143.44 37.2768V33.9294H144.538V43.0458H143.529L143.476 42.3574C143.037 42.8955 142.425 43.1645 141.642 43.1645C140.898 43.1645 140.291 42.8599 139.82 42.2505C139.353 41.6412 139.12 40.8459 139.12 39.8646V39.7815ZM140.218 39.9061C140.218 40.6342 140.368 41.204 140.669 41.6155C140.969 42.027 141.385 42.2327 141.915 42.2327C142.611 42.2327 143.12 41.9201 143.44 41.295V38.3452C143.112 37.7398 142.607 37.4371 141.927 37.4371C141.389 37.4371 140.969 37.6448 140.669 38.0603C140.368 38.4757 140.218 39.091 140.218 39.9061ZM145.957 39.7755C145.957 39.1464 146.08 38.5806 146.325 38.0781C146.574 37.5756 146.918 37.1878 147.358 36.9148C147.801 36.6418 148.305 36.5053 148.871 36.5053C149.746 36.5053 150.452 36.808 150.99 37.4133C151.532 38.0187 151.803 38.8239 151.803 39.829V39.9061C151.803 40.5313 151.682 41.0932 151.441 41.5917C151.204 42.0863 150.861 42.4721 150.414 42.7491C149.971 43.0261 149.461 43.1645 148.883 43.1645C148.012 43.1645 147.306 42.8618 146.764 42.2565C146.226 41.6511 145.957 40.8498 145.957 39.8527V39.7755ZM147.061 39.9061C147.061 40.6183 147.225 41.1901 147.553 41.6214C147.886 42.0527 148.329 42.2683 148.883 42.2683C149.441 42.2683 149.884 42.0507 150.212 41.6155C150.541 41.1763 150.705 40.563 150.705 39.7755C150.705 39.0712 150.537 38.5015 150.201 38.0662C149.868 37.627 149.425 37.4074 148.871 37.4074C148.329 37.4074 147.892 37.6231 147.559 38.0543C147.227 38.4856 147.061 39.1029 147.061 39.9061ZM152.521 36.8376L151.898 36.4103C152.266 35.8959 152.456 35.3538 152.468 34.7841V33.9294H153.554V34.701C153.55 35.0966 153.451 35.4923 153.257 35.888C153.067 36.2797 152.822 36.5963 152.521 36.8376ZM154.343 36.8376L153.72 36.4103C154.088 35.8959 154.278 35.3538 154.29 34.7841V33.9294H155.376V34.701C155.372 35.0966 155.273 35.4923 155.079 35.888C154.889 36.2797 154.644 36.5963 154.343 36.8376Z"
            fill="#D3313A"
          />
        </g>
        <defs>
          <clipPath id="clip0_0_1">
            <rect
              width="257"
              height="213.942"
              fill="white"
              transform="translate(0 0.746063)"
            />
          </clipPath>
        </defs>
      </svg>